<svg xmlns="http://www.w3.org/2000/svg" xmlns:xlink="http://www.w3.org/1999/xlink" width="500" zoomAndPan="magnify" viewBox="0 0 375 374.999991" height="500" preserveAspectRatio="xMidYMid meet" version="1.0"><defs><g/><clipPath id="1ac54977e4"><path d="M 25.953125 24.800781 L 349 24.800781 L 349 321.050781 L 25.953125 321.050781 Z M 25.953125 24.800781 " clip-rule="nonzero"/></clipPath></defs><g fill="#000000" fill-opacity="1"><g transform="translate(185.386589, 317.59123)"><g><path d="M 2.109375 0.078125 C 1.804688 0.078125 1.566406 -0.00390625 1.390625 -0.171875 C 1.222656 -0.335938 1.140625 -0.5625 1.140625 -0.84375 C 1.140625 -1.113281 1.222656 -1.332031 1.390625 -1.5 C 1.566406 -1.675781 1.804688 -1.765625 2.109375 -1.765625 C 2.410156 -1.765625 2.644531 -1.679688 2.8125 -1.515625 C 2.988281 -1.347656 3.078125 -1.128906 3.078125 -0.859375 C 3.078125 -0.578125 2.988281 -0.347656 2.8125 -0.171875 C 2.632812 -0.00390625 2.398438 0.078125 2.109375 0.078125 Z M 2.109375 0.078125 "/></g></g></g><path fill="#ff3131" d="M 268.738281 206.890625 C 268.621094 211.089844 266.976562 213.675781 263.550781 215.207031 C 260.027344 216.777344 257.316406 215.394531 255.085938 212.875 C 253.8125 211.441406 253.015625 209.582031 252.050781 207.882812 C 249.652344 203.65625 246.167969 200.699219 241.238281 200.734375 C 236.457031 200.765625 232.515625 203.011719 230.152344 207.464844 C 229.441406 208.796875 228.738281 210.148438 227.890625 211.390625 C 225.175781 215.371094 221.425781 216.714844 217.851562 215.074219 C 213.914062 213.269531 212.21875 209.511719 213.546875 204.820312 C 216.375 194.816406 223.132812 188.558594 232.914062 185.636719 C 247.3125 181.332031 263.601562 189.917969 267.929688 203.875 C 268.285156 205.023438 268.554688 206.195312 268.738281 206.890625 Z M 268.738281 206.890625 " fill-opacity="1" fill-rule="nonzero"/><g clip-path="url(#1ac54977e4)"><path fill="#ff3131" d="M 348.953125 194.332031 C 348.847656 180.824219 341.242188 171.324219 327.992188 168.5 C 325.105469 167.886719 324.015625 166.632812 323.363281 164.066406 C 314.152344 127.972656 277.539062 104.167969 246.0625 104.9375 C 229.550781 105.339844 213.019531 105.007812 195.816406 105.007812 C 195.816406 94.699219 195.738281 85.003906 195.929688 75.316406 C 195.949219 74.261719 197.320312 72.863281 198.417969 72.261719 C 207.1875 67.449219 213.09375 57.609375 211.945312 48.792969 C 210.492188 37.617188 204.667969 29.589844 193.78125 26.019531 C 191.6875 25.335938 189.582031 24.972656 187.496094 24.894531 C 185.410156 24.972656 183.304688 25.335938 181.210938 26.019531 C 170.324219 29.589844 164.496094 37.617188 163.046875 48.792969 C 161.898438 57.609375 167.804688 67.449219 176.574219 72.261719 C 177.671875 72.863281 179.042969 74.261719 179.0625 75.316406 C 179.253906 85.003906 179.175781 94.699219 179.175781 105.007812 C 161.972656 105.007812 145.441406 105.339844 128.929688 104.9375 C 97.453125 104.167969 60.839844 127.972656 51.628906 164.066406 C 50.976562 166.632812 49.886719 167.886719 47 168.5 C 33.75 171.324219 26.144531 180.824219 26.039062 194.332031 C 25.949219 205.410156 25.988281 216.496094 26.128906 227.574219 C 26.28125 239.722656 34.152344 249.757812 46.003906 252.664062 C 48.96875 253.390625 50.136719 254.675781 50.808594 257.589844 C 59.238281 294.195312 93.085938 321.089844 130.582031 321.105469 C 149.554688 321.113281 168.523438 321.140625 187.496094 321.140625 C 206.46875 321.140625 225.4375 321.113281 244.410156 321.105469 C 281.90625 321.089844 315.753906 294.195312 324.183594 257.589844 C 324.851562 254.675781 326.023438 253.390625 328.988281 252.664062 C 340.839844 249.757812 348.710938 239.722656 348.863281 227.574219 C 349.003906 216.496094 349.042969 205.410156 348.953125 194.332031 Z M 309.546875 234.226562 C 309.378906 240.832031 308.539062 247.574219 306.875 253.960938 C 299.609375 281.839844 276.496094 301.425781 247.769531 302.867188 C 227.726562 303.871094 207.589844 303.070312 187.496094 303.0625 C 167.402344 303.070312 147.265625 303.871094 127.222656 302.867188 C 98.496094 301.425781 75.382812 281.839844 68.117188 253.960938 C 66.453125 247.574219 65.613281 240.832031 65.445312 234.226562 C 65.0625 219.207031 65.230469 204.167969 65.347656 189.136719 C 65.644531 151.328125 94.617188 122.5625 132.433594 122.515625 C 150.789062 122.492188 169.140625 122.480469 187.496094 122.480469 C 205.847656 122.480469 224.203125 122.492188 242.554688 122.515625 C 280.375 122.5625 309.347656 151.328125 309.644531 189.136719 C 309.761719 204.167969 309.929688 219.207031 309.546875 234.226562 Z M 309.546875 234.226562 " fill-opacity="1" fill-rule="nonzero"/></g><path fill="#ff3131" d="M 225.945312 244.933594 C 222.34375 243.367188 218.285156 244.585938 215.460938 248.078125 C 215.273438 248.3125 215.070312 248.546875 214.917969 248.804688 C 209.398438 258 198.671875 263.367188 187.496094 263.640625 C 176.320312 263.367188 165.59375 258 160.074219 248.804688 C 159.921875 248.546875 159.71875 248.3125 159.527344 248.078125 C 156.707031 244.585938 152.644531 243.367188 149.046875 244.933594 C 145.332031 246.550781 143.179688 250.726562 144.640625 255.210938 C 145.632812 258.265625 147.449219 261.273438 149.582031 263.699219 C 159.644531 275.171875 172.667969 280.078125 187.496094 280.578125 C 202.320312 280.078125 215.347656 275.171875 225.410156 263.699219 C 227.542969 261.273438 229.359375 258.265625 230.351562 255.210938 C 231.8125 250.726562 229.660156 246.550781 225.945312 244.933594 Z M 225.945312 244.933594 " fill-opacity="1" fill-rule="nonzero"/><path fill="#ff3131" d="M 157.320312 200.546875 C 157.441406 187.210938 147.171875 176.699219 133.964844 176.636719 C 121.4375 176.582031 110.90625 187.140625 110.820312 199.84375 C 110.730469 213.554688 120.511719 223.695312 133.878906 223.753906 C 147.019531 223.8125 157.203125 213.730469 157.320312 200.546875 Z M 157.320312 200.546875 " fill-opacity="1" fill-rule="nonzero"/></svg>